<svg xmlns="http://www.w3.org/2000/svg" viewBox="0 0 400 200" fill="none" role="img"><defs><linearGradient id="bg" x1="0" y1="0" x2="400" y2="200" gradientUnits="userSpaceOnUse"><stop offset="0" stop-color="#f6f5f3"/><stop offset="1" stop-color="#e8e5e1"/></linearGradient><radialGradient id="gl" cx="332" cy="34" r="150" gradientUnits="userSpaceOnUse"><stop offset="0" stop-color="#f3350c" stop-opacity=".18"/><stop offset="1" stop-color="#f3350c" stop-opacity="0"/></radialGradient></defs><rect width="400" height="200" fill="url(#bg)"/><rect width="400" height="200" fill="url(#gl)"/><g fill="none" stroke="#2a2a31" stroke-width="4.5" stroke-linecap="round" stroke-linejoin="round"><rect x="40" y="58" width="70" height="92" rx="9" fill="#fbfaf9"/><line x1="56" y1="80" x2="94" y2="80"/><line x1="56" y1="98" x2="94" y2="98"/><line x1="56" y1="116" x2="82" y2="116"/></g><circle cx="75" cy="134" r="6" fill="none" stroke="#f3350c" stroke-width="4.5" stroke-linecap="round" stroke-linejoin="round"/><g fill="none" stroke="#2a2a31" stroke-width="4.5" stroke-linecap="round" stroke-linejoin="round"><circle cx="200" cy="72" r="17" fill="#fbfaf9"/><path d="M178 108c2-13 11-20 22-20s20 7 22 20"/><circle cx="150" cy="120" r="15" fill="#fbfaf9"/><path d="M131 150c2-11 9-17 19-17s17 6 19 17"/><circle cx="250" cy="120" r="15" fill="#fbfaf9"/><path d="M231 150c2-11 9-17 19-17s17 6 19 17"/></g><g stroke="#cbc6c0" stroke-width="3" stroke-dasharray="1 8" stroke-linecap="round"><line x1="110" y1="104" x2="185" y2="86"/><line x1="185" y1="96" x2="160" y2="112"/><line x1="215" y1="96" x2="240" y2="112"/></g><g fill="none" stroke="#2a2a31" stroke-width="4.5" stroke-linecap="round" stroke-linejoin="round"><rect x="286" y="52" width="82" height="56" rx="12" fill="#fbfaf9"/><path d="M300 108l-4 16 20-11"/></g><text x="327" y="86" font-family="Menlo,monospace" font-size="22" font-weight="700" fill="#f3350c" text-anchor="middle">AI</text></svg>