<svg xmlns="http://www.w3.org/2000/svg" viewBox="0 0 400 200" fill="none" role="img"><defs><linearGradient id="bg" x1="0" y1="0" x2="400" y2="200" gradientUnits="userSpaceOnUse"><stop offset="0" stop-color="#f6f5f3"/><stop offset="1" stop-color="#e8e5e1"/></linearGradient><radialGradient id="gl" cx="332" cy="34" r="150" gradientUnits="userSpaceOnUse"><stop offset="0" stop-color="#f3350c" stop-opacity=".18"/><stop offset="1" stop-color="#f3350c" stop-opacity="0"/></radialGradient></defs><rect width="400" height="200" fill="url(#bg)"/><rect width="400" height="200" fill="url(#gl)"/><g fill="none" stroke="#2a2a31" stroke-width="4.5" stroke-linecap="round" stroke-linejoin="round"><circle cx="150" cy="100" r="34" fill="#fbfaf9"/><circle cx="150" cy="100" r="12"/><line x1="184.0" y1="100.0" x2="194.0" y2="100.0"/><line x1="174.0" y1="124.0" x2="181.1" y2="131.1"/><line x1="150.0" y1="134.0" x2="150.0" y2="144.0"/><line x1="126.0" y1="124.0" x2="118.9" y2="131.1"/><line x1="116.0" y1="100.0" x2="106.0" y2="100.0"/><line x1="126.0" y1="76.0" x2="118.9" y2="68.9"/><line x1="150.0" y1="66.0" x2="150.0" y2="56.0"/><line x1="174.0" y1="76.0" x2="181.1" y2="68.9"/></g><g fill="none" stroke="#f3350c" stroke-width="4.5" stroke-linecap="round" stroke-linejoin="round"><circle cx="216" cy="140" r="22" fill="#fbfaf9"/><circle cx="216" cy="140" r="8"/><line x1="238.0" y1="140.0" x2="245.0" y2="140.0"/><line x1="231.6" y1="155.6" x2="236.5" y2="160.5"/><line x1="216.0" y1="162.0" x2="216.0" y2="169.0"/><line x1="200.4" y1="155.6" x2="195.5" y2="160.5"/><line x1="194.0" y1="140.0" x2="187.0" y2="140.0"/><line x1="200.4" y1="124.4" x2="195.5" y2="119.5"/><line x1="216.0" y1="118.0" x2="216.0" y2="111.0"/><line x1="231.6" y1="124.4" x2="236.5" y2="119.5"/></g><g fill="none" stroke="#2a2a31" stroke-width="4.5" stroke-linecap="round" stroke-linejoin="round"><path d="M262 96h58"/><path d="M312 88l12 8-12 8"/><path d="M262 120h40"/><path d="M294 112l12 8-12 8"/></g></svg>