<svg xmlns="http://www.w3.org/2000/svg" viewBox="0 0 400 200" fill="none" role="img"><defs><linearGradient id="bg" x1="0" y1="0" x2="400" y2="200" gradientUnits="userSpaceOnUse"><stop offset="0" stop-color="#f6f5f3"/><stop offset="1" stop-color="#e8e5e1"/></linearGradient><radialGradient id="gl" cx="332" cy="34" r="150" gradientUnits="userSpaceOnUse"><stop offset="0" stop-color="#f3350c" stop-opacity=".18"/><stop offset="1" stop-color="#f3350c" stop-opacity="0"/></radialGradient></defs><rect width="400" height="200" fill="url(#bg)"/><rect width="400" height="200" fill="url(#gl)"/><g fill="none" stroke="#2a2a31" stroke-width="4.5" stroke-linecap="round" stroke-linejoin="round"><line x1="200" y1="46" x2="200" y2="62"/><circle cx="200" cy="42" r="6" fill="#f3350c" stroke="#f3350c"/><rect x="146" y="62" width="108" height="82" rx="16" fill="#fbfaf9"/><circle cx="176" cy="100" r="9"/><circle cx="224" cy="100" r="9"/><path d="M180 124h40"/><path d="M146 96h-14v22h14M254 96h14v22h-14"/></g><g fill="none" stroke="#f3350c" stroke-width="4.5" stroke-linecap="round" stroke-linejoin="round"><rect x="270" y="70" width="74" height="50" rx="12" fill="#fbfaf9"/><path d="M286 120l-3 14 17-10"/></g><g stroke="#f3350c" stroke-width="4.5" stroke-linecap="round"><line x1="286" y1="92" x2="328" y2="92"/><line x1="286" y1="104" x2="314" y2="104"/></g></svg>