<svg xmlns="http://www.w3.org/2000/svg" viewBox="0 0 400 200" fill="none" role="img"><defs><linearGradient id="bg" x1="0" y1="0" x2="400" y2="200" gradientUnits="userSpaceOnUse"><stop offset="0" stop-color="#f6f5f3"/><stop offset="1" stop-color="#e8e5e1"/></linearGradient><radialGradient id="gl" cx="332" cy="34" r="150" gradientUnits="userSpaceOnUse"><stop offset="0" stop-color="#f3350c" stop-opacity=".18"/><stop offset="1" stop-color="#f3350c" stop-opacity="0"/></radialGradient></defs><rect width="400" height="200" fill="url(#bg)"/><rect width="400" height="200" fill="url(#gl)"/><g fill="none" stroke="#2a2a31" stroke-width="4.5" stroke-linecap="round" stroke-linejoin="round"><path d="M120 40h84l40 40v88a8 8 0 0 1-8 8h-116a8 8 0 0 1-8-8V48a8 8 0 0 1 8-8z" fill="#fbfaf9"/><path d="M204 40v40h40"/><line x1="138" y1="102" x2="222" y2="102"/><line x1="138" y1="120" x2="222" y2="120"/><line x1="138" y1="138" x2="196" y2="138"/></g><g fill="none" stroke="#f3350c" stroke-width="4.5" stroke-linecap="round" stroke-linejoin="round"><path d="M262 132l58-58 20 20-58 58-26 6z"/><path d="M300 94l20 20"/></g></svg>