<svg xmlns="http://www.w3.org/2000/svg" viewBox="0 0 400 200" fill="none" role="img"><defs><linearGradient id="bg" x1="0" y1="0" x2="400" y2="200" gradientUnits="userSpaceOnUse"><stop offset="0" stop-color="#f6f5f3"/><stop offset="1" stop-color="#e8e5e1"/></linearGradient><radialGradient id="gl" cx="300" cy="40" r="170" gradientUnits="userSpaceOnUse"><stop offset="0" stop-color="#f3350c" stop-opacity=".2"/><stop offset="1" stop-color="#f3350c" stop-opacity="0"/></radialGradient></defs><rect width="400" height="200" fill="url(#bg)"/><rect width="400" height="200" fill="url(#gl)"/><g stroke="#2a2a31" stroke-width="4.5" stroke-linecap="round" stroke-linejoin="round"><rect x="116" y="26" width="168" height="148" rx="13" fill="#fbfaf9"/><rect x="134" y="44" width="132" height="60" rx="9" fill="#f6f5f3"/><circle cx="167" cy="74" r="18" fill="none"/><circle cx="167" cy="74" r="4" fill="#f3350c" stroke="none"/><path d="M167 60v5M167 83v5M153 74h5M176 74h5M157 64l4 4M173 80l4 4" stroke-width="3"/><circle cx="233" cy="74" r="18" fill="none"/><circle cx="233" cy="74" r="4" fill="#f3350c" stroke="none"/><path d="M233 60v5M233 83v5M219 74h5M242 74h5M223 64l4 4M239 80l4 4" stroke-width="3"/><rect x="134" y="118" width="132" height="20" rx="6" fill="none" stroke="#f3350c"/><rect x="134" y="146" width="132" height="14" rx="5" fill="none"/></g></svg>
