<svg xmlns="http://www.w3.org/2000/svg" viewBox="0 0 400 200" fill="none" role="img"><defs><linearGradient id="bg" x1="0" y1="0" x2="400" y2="200" gradientUnits="userSpaceOnUse"><stop offset="0" stop-color="#f6f5f3"/><stop offset="1" stop-color="#e8e5e1"/></linearGradient><radialGradient id="gl" cx="300" cy="40" r="160" gradientUnits="userSpaceOnUse"><stop offset="0" stop-color="#f3350c" stop-opacity=".16"/><stop offset="1" stop-color="#f3350c" stop-opacity="0"/></radialGradient></defs><rect width="400" height="200" fill="url(#bg)"/><rect width="400" height="200" fill="url(#gl)"/><g stroke="#2a2a31" stroke-width="4.5" stroke-linecap="round" stroke-linejoin="round"><rect x="120" y="32" width="160" height="136" rx="12" fill="#fbfaf9"/><rect x="138" y="64" width="124" height="44" rx="8" fill="#f6f5f3"/><circle cx="168" cy="86" r="15" fill="none"/><circle cx="168" cy="86" r="3.5" fill="#f3350c" stroke="none"/><path d="M168 74v4M168 94v4M156 86h4M176 86h4" stroke-width="3"/><circle cx="232" cy="86" r="15" fill="none"/><circle cx="232" cy="86" r="3.5" fill="#f3350c" stroke="none"/><path d="M232 74v4M232 94v4M220 86h4M240 86h4" stroke-width="3"/><rect x="138" y="120" width="124" height="30" rx="6" fill="none"/><line x1="150" y1="135" x2="196" y2="135"/><circle cx="140" cy="48" r="4.5" fill="none" stroke="#f3350c"/></g></svg>
