<svg xmlns="http://www.w3.org/2000/svg" viewBox="0 0 400 200" fill="none" role="img"><defs><linearGradient id="bg" x1="0" y1="0" x2="400" y2="200" gradientUnits="userSpaceOnUse"><stop offset="0" stop-color="#f6f5f3"/><stop offset="1" stop-color="#e8e5e1"/></linearGradient><radialGradient id="gl" cx="300" cy="40" r="160" gradientUnits="userSpaceOnUse"><stop offset="0" stop-color="#f3350c" stop-opacity=".16"/><stop offset="1" stop-color="#f3350c" stop-opacity="0"/></radialGradient></defs><rect width="400" height="200" fill="url(#bg)"/><rect width="400" height="200" fill="url(#gl)"/><g stroke="#2a2a31" stroke-width="4.5" stroke-linecap="round" stroke-linejoin="round"><rect x="146" y="40" width="108" height="122" rx="10" fill="#fbfaf9"/><line x1="170" y1="58" x2="170" y2="144"/><circle cx="170" cy="72" r="5.5" fill="none" stroke="#f3350c"/><rect x="188" y="62" width="52" height="20" rx="5" fill="none"/><rect x="188" y="94" width="52" height="52" rx="8" fill="#f6f5f3"/><circle cx="214" cy="120" r="16" fill="none"/><circle cx="214" cy="120" r="4" fill="#f3350c" stroke="none"/><path d="M214 104v6M214 130v6M198 120h6M224 120h6M203 109l4 4M221 127l4 4M225 109l-4 4M207 127l-4 4" stroke="#2a2a31" stroke-width="3"/></g></svg>
