<svg xmlns="http://www.w3.org/2000/svg" viewBox="0 0 200 200" role="img"><style>.av-eye{transform-box:fill-box;transform-origin:center}</style><circle cx="100" cy="100" r="100" fill="#f2a9b8"/><path d="M52,92 C50,44 76,34 100,34 C124,34 150,44 148,92 C152,122 154,148 144,166 L128,150 C132,132 132,116 130,102 L70,102 C68,116 68,132 72,150 L56,166 C46,148 48,122 52,92 Z" fill="#a1503c"/><path d="M26,206 C34,160 64,148 100,148 C136,148 166,160 174,206 Z" fill="#d9a441"/><rect x="84" y="138" width="32" height="14" rx="7" fill="#c8933a"/><rect x="90" y="122" width="20" height="28" rx="8" fill="#e4bd97"/><ellipse cx="60" cy="96" rx="6.5" ry="9" fill="#e4bd97"/><ellipse cx="140" cy="96" rx="6.5" ry="9" fill="#e4bd97"/><ellipse cx="100" cy="92" rx="40" ry="44" fill="#f6d0ae"/><path d="M58,94 C58,52 80,42 100,42 C120,42 142,52 142,94 C132,64 116,58 100,58 C84,58 68,64 58,94 Z" fill="#a1503c"/><path d="M72,79 Q82,74 92,79" fill="none" stroke="#a1503c" stroke-width="3" stroke-linecap="round"/><path d="M108,79 Q118,74 128,79" fill="none" stroke="#a1503c" stroke-width="3" stroke-linecap="round"/><ellipse class="av-eye" cx="82" cy="92" rx="4.6" ry="5.4" fill="#2a241f"/><ellipse class="av-eye" cx="118" cy="92" rx="4.6" ry="5.4" fill="#2a241f"/><path d="M100,98 q4,9 0,13" fill="none" stroke="rgba(60,30,20,.28)" stroke-width="2.4" stroke-linecap="round"/><ellipse cx="74" cy="110" rx="6" ry="3.6" fill="rgba(230,110,90,.25)"/><ellipse cx="126" cy="110" rx="6" ry="3.6" fill="rgba(230,110,90,.25)"/><path class="av-mouth" d="M86,128 Q100,134 114,128 Q100,138 86,128 Z" fill="#7c3542"/></svg>