<svg xmlns="http://www.w3.org/2000/svg" viewBox="0 0 200 200" role="img"><style>.av-eye{transform-box:fill-box;transform-origin:center}</style><circle cx="100" cy="100" r="100" fill="#f7b267"/><path d="M26,206 C34,160 64,148 100,148 C136,148 166,160 174,206 Z" fill="#1f3a5f"/><path d="M100,148 L82,168 L100,200 L118,168 Z" fill="#f7f7fa"/><path d="M64,152 L84,196 L64,206 Z" fill="#16294a"/><path d="M136,152 L116,196 L136,206 Z" fill="#16294a"/><rect x="90" y="122" width="20" height="28" rx="8" fill="#e3b28c"/><ellipse cx="60" cy="96" rx="6.5" ry="9" fill="#e3b28c"/><ellipse cx="140" cy="96" rx="6.5" ry="9" fill="#e3b28c"/><ellipse cx="100" cy="92" rx="40" ry="44" fill="#f2c9a5"/><circle cx="100" cy="42" r="13" fill="#332b36"/><path d="M60,94 C58,56 78,46 100,46 C122,46 142,56 140,94 C136,66 122,60 100,60 C78,60 64,66 60,94 Z" fill="#332b36"/><circle cx="60" cy="107" r="2.6" fill="#e8b04b"/><circle cx="140" cy="107" r="2.6" fill="#e8b04b"/><path d="M72,79 Q82,74 92,79" fill="none" stroke="#332b36" stroke-width="3" stroke-linecap="round"/><path d="M108,79 Q118,74 128,79" fill="none" stroke="#332b36" stroke-width="3" stroke-linecap="round"/><ellipse class="av-eye" cx="82" cy="92" rx="4.6" ry="5.4" fill="#2a241f"/><ellipse class="av-eye" cx="118" cy="92" rx="4.6" ry="5.4" fill="#2a241f"/><path d="M100,98 q4,9 0,13" fill="none" stroke="rgba(60,30,20,.28)" stroke-width="2.4" stroke-linecap="round"/><ellipse cx="74" cy="110" rx="6" ry="3.6" fill="rgba(230,110,90,.25)"/><ellipse cx="126" cy="110" rx="6" ry="3.6" fill="rgba(230,110,90,.25)"/><path class="av-mouth" d="M86,128 Q100,134 114,128 Q100,138 86,128 Z" fill="#7c3542"/></svg>