<svg xmlns="http://www.w3.org/2000/svg" viewBox="0 0 200 200" role="img"><style>.av-eye{transform-box:fill-box;transform-origin:center}</style><circle cx="100" cy="100" r="100" fill="#9adfb4"/><path d="M26,206 C34,160 64,148 100,148 C136,148 166,160 174,206 Z" fill="#1f7a6d"/><path d="M92,148 L100,158 L108,148" fill="none" stroke="#155c52" stroke-width="3"/><rect x="90" y="122" width="20" height="28" rx="8" fill="#e2b88d"/><ellipse cx="60" cy="96" rx="6.5" ry="9" fill="#e2b88d"/><ellipse cx="140" cy="96" rx="6.5" ry="9" fill="#e2b88d"/><ellipse cx="100" cy="92" rx="40" ry="44" fill="#f4cba3"/><path d="M60,86 C62,50 82,40 100,40 C118,40 138,50 140,86 C132,62 118,54 100,54 C82,54 68,62 60,86 Z" fill="#b98a4e"/><path d="M72,79 Q82,74 92,79" fill="none" stroke="#b98a4e" stroke-width="3" stroke-linecap="round"/><path d="M108,79 Q118,74 128,79" fill="none" stroke="#b98a4e" stroke-width="3" stroke-linecap="round"/><ellipse class="av-eye" cx="82" cy="92" rx="4.6" ry="5.4" fill="#2a241f"/><ellipse class="av-eye" cx="118" cy="92" rx="4.6" ry="5.4" fill="#2a241f"/><path d="M100,98 q4,9 0,13" fill="none" stroke="rgba(60,30,20,.28)" stroke-width="2.4" stroke-linecap="round"/><ellipse cx="74" cy="110" rx="6" ry="3.6" fill="rgba(230,110,90,.25)"/><ellipse cx="126" cy="110" rx="6" ry="3.6" fill="rgba(230,110,90,.25)"/><path class="av-mouth" d="M86,128 Q100,134 114,128 Q100,138 86,128 Z" fill="#7c3542"/><path d="M58,76 C64,44 136,44 142,76" fill="none" stroke="#23262b" stroke-width="7" stroke-linecap="round"/><rect x="50" y="84" width="13" height="24" rx="6" fill="#23262b"/><rect x="137" y="84" width="13" height="24" rx="6" fill="#23262b"/><path d="M57,106 C58,124 72,134 86,134" fill="none" stroke="#23262b" stroke-width="3.6" stroke-linecap="round"/><circle cx="88" cy="134" r="4.4" fill="#23262b"/></svg>