<svg xmlns="http://www.w3.org/2000/svg" viewBox="0 0 1600 1000" preserveAspectRatio="xMidYMid slice" role="img" aria-label="">
  <defs>
    <linearGradient id="sky" x1="0" y1="0" x2="0" y2="1">
      <stop offset="0" stop-color="#DCEEFF"/>
      <stop offset="0.42" stop-color="#E4F4F0"/>
      <stop offset="0.72" stop-color="#F3F3E4"/>
      <stop offset="1" stop-color="#FCE6D4"/>
    </linearGradient>
    <radialGradient id="sky2" cx="0.5" cy="0.5" r="0.5">
      <stop offset="0" stop-color="#BFDFFB" stop-opacity="0.9"/>
      <stop offset="1" stop-color="#BFDFFB" stop-opacity="0"/>
    </radialGradient>
    <radialGradient id="mint" cx="0.5" cy="0.5" r="0.5">
      <stop offset="0" stop-color="#B9E9D2" stop-opacity="0.9"/>
      <stop offset="1" stop-color="#B9E9D2" stop-opacity="0"/>
    </radialGradient>
    <radialGradient id="peach" cx="0.5" cy="0.5" r="0.5">
      <stop offset="0" stop-color="#FAD3B4" stop-opacity="0.95"/>
      <stop offset="1" stop-color="#FAD3B4" stop-opacity="0"/>
    </radialGradient>
    <radialGradient id="rose" cx="0.5" cy="0.5" r="0.5">
      <stop offset="0" stop-color="#FBD0C6" stop-opacity="0.8"/>
      <stop offset="1" stop-color="#FBD0C6" stop-opacity="0"/>
    </radialGradient>
    <linearGradient id="lift" x1="0" y1="0" x2="0" y2="1">
      <stop offset="0" stop-color="#FFFFFF" stop-opacity="0.35"/>
      <stop offset="0.5" stop-color="#FFFFFF" stop-opacity="0"/>
      <stop offset="1" stop-color="#FFFFFF" stop-opacity="0.18"/>
    </linearGradient>
    <filter id="blur" x="-30%" y="-30%" width="160%" height="160%">
      <feGaussianBlur stdDeviation="80"/>
    </filter>
  </defs>
  <rect width="1600" height="1000" fill="url(#sky)"/>
  <g filter="url(#blur)">
    <ellipse cx="360" cy="230" rx="560" ry="300" fill="url(#sky2)"/>
    <ellipse cx="520" cy="760" rx="560" ry="320" fill="url(#mint)"/>
    <ellipse cx="1240" cy="820" rx="600" ry="340" fill="url(#peach)"/>
    <ellipse cx="1320" cy="300" rx="480" ry="300" fill="url(#rose)"/>
    <ellipse cx="900" cy="560" rx="520" ry="280" fill="url(#mint)"/>
    <path d="M-100 700 C 320 620 560 760 900 700 S 1500 600 1720 680 L 1720 1000 L -100 1000 Z" fill="#F6C9A6" opacity="0.4"/>
  </g>
  <rect width="1600" height="1000" fill="url(#lift)"/>
</svg>
